<svg xmlns="http://www.w3.org/2000/svg" width="24" height="24" viewBox="0 0 24 24"><g><g><path fill="#fff" d="M8 1.667a1 1 0 0 1-1 1H2.667V16h2.666A2.667 2.667 0 0 1 8 18.667a2.667 2.667 0 0 0 2.667 2.666h2.666A2.667 2.667 0 0 0 16 18.667 2.667 2.667 0 0 1 18.667 16h2.666V2.667H17a1 1 0 0 1-1-1V1a1 1 0 0 1 1-1h4.333A2.667 2.667 0 0 1 24 2.667v18.666A2.667 2.667 0 0 1 21.333 24H2.667A2.667 2.667 0 0 1 0 21.333V2.667A2.667 2.667 0 0 1 2.667 0H7a1 1 0 0 1 1 1z"/></g><g><path fill="#fff" d="M10.67 10.114v-8.78a1.333 1.333 0 1 1 2.667 0v8.78l1.724-1.723a1.333 1.333 0 0 1 1.885 1.885l-4 4c-.52.52-1.365.52-1.885 0l-4-4a1.333 1.333 0 0 1 1.885-1.885z"/></g></g></svg>
