<svg xmlns="http://www.w3.org/2000/svg" width="92" height="80" viewBox="0 0 92 80">
	<g fill="none">
		<path fill="#BFCDE0" d="M92 51.26c0 .814-.663 1.48-1.474 1.48H37.449c-.811 0-1.475-.666-1.475-1.48V6.814c0-.814.664-1.48 1.475-1.48h53.077c.81 0 1.474.666 1.474 1.48V51.26z"/>
		<path fill="#F0F3F6" d="M92 38.211c0 .821-.663 1.493-1.474 1.493H37.449c-.811 0-1.475-.672-1.475-1.493V3.863c0-.82.664-1.493 1.475-1.493h53.077c.81 0 1.474.672 1.474 1.493v34.348z"/>
		<g fill="#A8B7CB">
			<path d="M54.69 1.492H1.485C.672 1.492.007.824.007.007v1.478c0 .817.665 1.485 1.478 1.485H54.69c.813 0 1.478-.668 1.478-1.485V.007c0 .817-.665 1.485-1.478 1.485zM54.69 4.46H1.485C.672 4.46.007 3.79.007 2.975v1.477c0 .817.665 1.485 1.478 1.485H54.69c.813 0 1.478-.668 1.478-1.485V2.975c0 .816-.665 1.485-1.478 1.485zM54.69 7.427H1.485c-.813 0-1.478-.669-1.478-1.485v1.477c0 .817.665 1.485 1.478 1.485H54.69c.813 0 1.478-.668 1.478-1.485V5.942c0 .816-.665 1.485-1.478 1.485zM54.69 10.394H1.485c-.813 0-1.478-.668-1.478-1.485v1.477c0 .817.665 1.486 1.478 1.486H54.69c.813 0 1.478-.669 1.478-1.486V8.91c0 .817-.665 1.485-1.478 1.485zM54.69 13.361H1.485c-.813 0-1.478-.668-1.478-1.485v1.478c0 .816.665 1.485 1.478 1.485H54.69c.813 0 1.478-.669 1.478-1.485v-1.478c0 .817-.665 1.485-1.478 1.485z" transform="translate(35.385 38.519)"/>
		</g>
		<path fill="#A8B7CB" d="M60.362 23.718c-.052-.078-.127-.122-.19-.185-.047-.047-.078-.11-.132-.153-.016-.012-.034-.012-.048-.024-.096-.067-.201-.105-.307-.148-.073-.03-.143-.067-.217-.084-.09-.02-.18-.01-.273-.01-.094 0-.188-.01-.282.01-.073.017-.14.053-.21.082-.108.042-.213.081-.31.15-.016.012-.033.012-.048.024-.056.042-.087.104-.134.156-.063.063-.136.105-.188.182l-5.259 7.637c-.47.682-.328 1.636.32 2.131.257.197.554.292.848.292.449 0 .888-.219 1.172-.63l.621-.9h4.904v.838l1.377-1.985c.25.193.529.326.831.326.295 0 .592-.095.849-.292.646-.496.79-1.45.32-2.133l-3.644-5.284z"/>
		<path fill="#FFF" d="M44.23 8.296c1.637 0 2.95 1.334 2.95 2.963 0 1.645-1.313 2.963-2.95 2.963-1.621 0-2.948-1.332-2.948-2.963 0-1.628 1.328-2.963 2.949-2.963z"/>
		<path fill="#F6BB42" d="M69 53.333v22.223C69 78.015 67.01 80 64.577 80c-2.448 0-4.423-1.985-4.423-4.444V53.333H69z"/>
		<path fill="#BFCDE0" d="M87.872 39.704l-15.845-21.93c-.049-.068-.12-.105-.178-.164-.05-.05-.084-.114-.143-.158-.02-.015-.04-.015-.06-.028-.094-.063-.192-.098-.294-.138-.08-.032-.154-.07-.238-.087-.093-.02-.19-.012-.286-.012-.093 0-.185-.006-.278.012-.084.016-.158.055-.24.088-.102.038-.202.075-.294.138-.018.012-.04.015-.058.027-.057.044-.09.106-.139.157-.06.058-.132.097-.182.166L59.26 32.138c-.482.669-.34 1.608.319 2.099.264.195.57.29.874.29l.01-.002v5.179h27.409z"/>
		<path fill="#FFF" d="M44.524 16c-2.438 0-4.421-1.995-4.421-4.446 0-2.45 1.983-4.443 4.421-4.443 2.44 0 4.425 1.994 4.425 4.443 0 2.453-1.986 4.446-4.425 4.446zm0-5.927c-.813 0-1.474.665-1.474 1.481 0 .82.66 1.484 1.474 1.484.815 0 1.477-.665 1.477-1.484 0-.814-.662-1.48-1.477-1.48z"/>
		<path fill="#FFF3D5" d="M60.449 75.556c0 2.459 1.975 4.444 4.423 4.444H4.423C1.976 80 0 78.015 0 75.556V31.11h4.423v-4.444h20.774l1.356 4.444H60.45V75.556z"/>
		<path fill="#E1CEA6" d="M44.512 54.519h-28.28c-.823 0-1.488-.663-1.488-1.482 0-.82.665-1.481 1.488-1.481h28.28c.823 0 1.488.662 1.488 1.481 0 .82-.665 1.482-1.488 1.482zM44.512 59.26h-28.28c-.823 0-1.488-.663-1.488-1.482 0-.82.665-1.482 1.488-1.482h28.28c.823 0 1.488.663 1.488 1.482s-.665 1.481-1.488 1.481zM35.65 63.407H25.093c-.832 0-1.504-.662-1.504-1.481 0-.82.672-1.482 1.504-1.482H35.65c.832 0 1.505.663 1.505 1.482 0 .82-.673 1.481-1.505 1.481z"/>
	</g>
</svg>
