<svg xmlns="http://www.w3.org/2000/svg" width="330" height="261" viewBox="0 0 330 261">
	<defs>
		<linearGradient id="prefix__a" x1="78.68%" x2="42.735%" y1="46.689%" y2="51.492%">
			<stop offset="1%"/>
			<stop offset="100%" stop-opacity="0"/>
		</linearGradient>
		<linearGradient id="prefix__b" x1="142.911%" x2="24.024%" y1="174.227%" y2="13.112%">
			<stop offset="1%"/>
			<stop offset="100%" stop-opacity="0"/>
		</linearGradient>
		<linearGradient id="prefix__c" x1="49.796%" x2="50.736%" y1="49.683%" y2="51.145%">
			<stop offset="0%"/>
			<stop offset="100%" stop-opacity="0"/>
		</linearGradient>
		<linearGradient id="prefix__d" x1="66.273%" x2="39.727%" y1="-54.556%" y2="116.176%">
			<stop offset="1%"/>
			<stop offset="100%" stop-opacity="0"/>
		</linearGradient>
		<linearGradient id="prefix__e" x1="34.409%" x2="71.198%" y1="24.861%" y2="73.198%">
			<stop offset="0%" stop-color="#FFF" stop-opacity="0"/>
			<stop offset="58%" stop-color="#FFF" stop-opacity=".39"/>
			<stop offset="100%" stop-color="#FFF"/>
		</linearGradient>
		<linearGradient id="prefix__f" x1="60.204%" x2="39.239%" y1="48.109%" y2="52.05%">
			<stop offset="2%" stop-color="#FFF" stop-opacity="0"/>
			<stop offset="58%" stop-color="#FFF" stop-opacity=".39"/>
			<stop offset="100%" stop-color="#FFF"/>
		</linearGradient>
		<linearGradient id="prefix__g" x1="107.403%" x2="42.773%" y1="-8.982%" y2="58.558%">
			<stop offset="1%"/>
			<stop offset="100%" stop-opacity="0"/>
		</linearGradient>
		<linearGradient id="prefix__h" x1="68.979%" x2="27.408%" y1="82.816%" y2="14.471%">
			<stop offset="1%"/>
			<stop offset="9%" stop-opacity=".82"/>
			<stop offset="100%" stop-opacity="0"/>
		</linearGradient>
		<linearGradient id="prefix__i" x1="46.32%" x2="53.34%" y1="35.087%" y2="65.564%">
			<stop offset="0%"/>
			<stop offset="100%" stop-opacity="0"/>
		</linearGradient>
		<linearGradient id="prefix__j" x1="65.787%" x2="35.46%" y1="-26.158%" y2="120.267%">
			<stop offset="0%"/>
			<stop offset="100%" stop-opacity="0"/>
		</linearGradient>
		<linearGradient id="prefix__k" x1="74.69%" x2="54.546%" y1="36.72%" y2="48.674%">
			<stop offset="1%"/>
			<stop offset="100%" stop-opacity="0"/>
		</linearGradient>
		<linearGradient id="prefix__l" x1="55.357%" x2="16.462%" y1="48.679%" y2="58.271%">
			<stop offset="0%"/>
			<stop offset="100%" stop-opacity="0"/>
		</linearGradient>
		<linearGradient id="prefix__m" x1="77.563%" x2="33.92%" y1="35.439%" y2="60.439%">
			<stop offset="0%"/>
			<stop offset="100%" stop-opacity="0"/>
		</linearGradient>
		<linearGradient id="prefix__n" x1="44.467%" x2="53.851%" y1="102.632%" y2="-16.533%">
			<stop offset="1%"/>
			<stop offset="100%" stop-opacity="0"/>
		</linearGradient>
		<linearGradient id="prefix__o" x1="37.077%" x2="65.205%" y1="29.466%" y2="69.503%">
			<stop offset="0%" stop-color="#FFF" stop-opacity="0"/>
			<stop offset="58%" stop-color="#FFF" stop-opacity=".39"/>
			<stop offset="68%" stop-color="#FFF" stop-opacity=".68"/>
			<stop offset="100%" stop-color="#FFF"/>
		</linearGradient>
		<linearGradient id="prefix__p" x1="80.691%" x2="3.867%" y1="-2.071%" y2="127.82%">
			<stop offset="0%"/>
			<stop offset="100%" stop-opacity="0"/>
		</linearGradient>
	</defs>
	<g fill="none" fill-rule="evenodd">
		<path fill="#CFD9E2" d="M0 0H1366V768H0z" transform="translate(-926 -214)"/>
		<g>
			<path fill="#FFF" d="M12 654h478c6.627 0 12-5.373 12-12V0H0v642c0 6.627 5.373 12 12 12z" transform="translate(-926 -214) translate(840 94)"/>
			<g>
				<g fill-rule="nonzero" transform="translate(-926 -214) translate(840 94) translate(86 120)">
					<path fill="#BECBD8" d="M292.743 251.132c17.165-6.486 32.684-20.359 36.049-38.408 2.773-14.886-2.943-30-9.892-43.467-6.949-13.468-15.365-26.481-18.608-41.27-6.04-27.503 6.422-58.014-5.416-83.563-3.56-7.67-9.122-14.286-15.406-19.921C251.992-.05 210.73-5.546 175.532 5.31c-35.197 10.857-64.58 36.203-86.197 66.024-8.919 12.292-16.67 25.42-26.392 37.07-12.957 15.52-29.773 29.14-35.4 48.527-4.094 14.011-1.621 29.19 3.243 42.973 7.484 21.13 39.73 58.711 55.079 58.638 34.208-.17 99.843 1.508 131.554.292 23.757-.932 50.457 1.687 75.324-7.703z" opacity=".232"/>
					<path fill="#F1AF8C" d="M146.108 222.665c-.81 2.31-1.524 4.962-.349 7.11.787 1.199 1.845 2.193 3.09 2.903l11.189 7.606c2.148 1.46 4.427 2.96 7.005 3.154 2.579.194 5.506-1.452 5.725-4.054.259-2.976-2.863-5.011-4.322-7.622-1.914-3.421-.86-7.662.138-11.457 2.514-9.55 4.351-19.266 5.497-29.075-2.295-.94-8.976-5.149-11.351-4.452-2.676.811-5.092 8.295-6.284 10.736-4.029 8.132-7.483 16.536-10.338 25.15z"/>
					<path fill="#FFF" d="M167.57 158.49c-2.902 8.245-5.984 16.515-10.638 23.926-.168.215-.257.481-.25.754.073.257.233.48.453.633 4.679 4.094 9.73 8.367 15.884 9.251.401.093.821.056 1.2-.105.355-.252.617-.614.746-1.03 3.924-9.09 5.31-19.046 5.18-28.89-.084-4.916-.474-9.823-1.167-14.691-.162-1.184-.251-6.438-1.28-7.054-1.566-.925-3.284 2.302-3.966 3.316-2.821 4.224-4.491 9.09-6.162 13.89z"/>
					<path fill="url(#prefix__a)" d="M180.292 142.776s-3.657 1.37-6.633 11.667c-2.975 10.298-10.078 35.254-10.078 35.254s10.987 5.49 13.735 3.43c2.749-2.06 2.976-50.351 2.976-50.351z"/>
					<path fill="#FFF" d="M211.46 132.17c5.983-.186 12.04.106 17.797 1.727 5.757 1.622 11.23 4.687 15.008 9.333 4.184 5.14 6.016 11.862 6.438 18.47.421 6.608-.454 13.232-1.12 19.832-1.557 15.449-1.969 30.991-1.232 46.5.179 3.714 2.303 23.1-.308 25.752-1.621 1.67 1.622 3.34-.689 3.892-18.892 4.54-52.832 2.31-70.719-5.262-4.549-1.93-9.113-4.614-11.351-9.009-2.433-4.76 4.135-23.627 4.921-28.921 2.384-16.157 4.103-32.4 5.157-48.73.462-7.224-.073-15.008 1.411-22.103 1.078-5.148 4.395-6.551 9.178-7.816 8.34-2.17 16.896-3.399 25.508-3.665z"/>
					<path fill="url(#prefix__b)" d="M227.003 216.697c-.625 3.284-1.444 6.714-3.69 9.195-1.776 1.776-3.95 3.104-6.34 3.876-11.27 4.248-24.122 3.583-34.922 8.918-.761.334-1.463.792-2.075 1.355-2.084 2.059-1.5 5.675.154 8.108 3.673 5.375 10.816 6.883 17.262 7.88 15.454 2.433 31.232 4.42 46.678 1.93.84-.06 1.645-.368 2.311-.883.533-.62.874-1.38.981-2.19 3.503-15.55.746-31.743.681-47.683 0-9.195.811-18.398.187-27.568-.314-5.706-1.501-11.331-3.52-16.678-1.434-3.633-5.634-11.652-8.156-4.208-4.005 11.83-5.157 24.583-6.6 36.916-.786 7.03-1.63 14.067-2.951 21.032z"/>
					<rect width="144.357" height="13.314" x="94.135" y="245.205" fill="#B6B6B6" rx="6.657"/>
					<rect width="144.357" height="13.314" x="94.135" y="245.205" fill="url(#prefix__c)" rx="6.657"/>
					<path fill="#F1AF8C" d="M197.003 144.77c-2.684-.43-4.192-3.13-2.992-9.632.13-.722.3-1.42.494-2.116 0-.13.073-.26.106-.39.292-1.005.624-2.01.948-3.008.903-2.393 1.38-4.926 1.411-7.483-.073-1.865-.219-3.803.47-5.522.663-1.459 1.7-2.715 3.009-3.64 2.894-2.23 11.351-6.422 12.973-.884.721 2.367.194 5.124.162 7.548-.162 3.474.476 6.939 1.865 10.127 1.767 3.552-11.854 16.054-18.446 15z"/>
					<path fill="url(#prefix__d)" d="M195.097 131.562s14.952-5.676 17.838-14.651l-15.932 5.213s-.381 8.214-1.906 9.438z"/>
					<path fill="#FFF" d="M235.63 150.973c-1.526 16.963 1.286 34.036 8.173 49.613.203.575.546 1.09.997 1.5.727.452 1.579.662 2.432.6 6.67.144 13.196-1.951 18.536-5.95 1.621-1.225 3.146-2.79 3.283-4.695.004-1.022-.197-2.034-.592-2.976-4.139-12.03-8.971-23.808-14.473-35.279-2.043-4.248-4.783-9.227-9.73-11.1-5.95-2.245-8.213 3.844-8.626 8.287z"/>
					<path fill="#989898" d="M206.66 160.67c4.435-4.678 7.686-10.33 10.897-15.916 1.954-3.405 3.957-6.965 4.232-10.89.07-.445-.001-.901-.203-1.305-.195-.281-.45-.516-.745-.689l-6.09-4.127c-.105 3.738-2.789 6.949-5.854 9.098-3.243 2.302-12.527 4.824-10.54 9.6.494 1.208 7.784 14.773 8.302 14.23z"/>
					<path fill="#949494" d="M197.003 144.77c-1.83 3.602-3.864 7.096-6.09 10.468-.859 1.305-1.824 2.66-3.243 3.243-.182.094-.39.123-.592.081-.356-.121-.437-.592-.462-.965-.3-6.235-.592-12.575.933-18.648.482-2.153 1.374-4.193 2.627-6.008.438-.584 3.94-3.098 5.416-3.365-.324.997-.657 2.002-.949 3.008-.048.094-.08.195-.097.3v.089c-.195.697-.365 1.395-.495 2.116-1.216 6.552.292 9.252 2.952 9.681z"/>
					<path fill="url(#prefix__e)" d="M206.66 160.67c4.435-4.678 7.686-10.33 10.897-15.916 1.954-3.405 3.957-6.965 4.232-10.89.07-.445-.001-.901-.203-1.305-.195-.281-.45-.516-.745-.689l-6.09-4.127c-.105 3.738-2.789 6.949-5.854 9.098-3.243 2.302-12.527 4.824-10.54 9.6.494 1.208 7.784 14.773 8.302 14.23z"/>
					<path fill="url(#prefix__f)" d="M197.003 144.77c-1.83 3.602-3.864 7.096-6.09 10.468-.859 1.305-1.824 2.66-3.243 3.243-.182.094-.39.123-.592.081-.356-.121-.437-.592-.462-.965-.3-6.235-.592-12.575.933-18.648.482-2.153 1.374-4.193 2.627-6.008.438-.584 3.94-3.098 5.416-3.365-.324.997-.657 2.002-.949 3.008-.048.094-.08.195-.097.3v.089c-.195.697-.365 1.395-.495 2.116-1.216 6.552.292 9.252 2.952 9.681z"/>
					<path fill="#F1AF8C" d="M241.305 248.254l35.514-6.786c2.1-.406 4.29-.811 5.951-2.19 2.279-1.832 3.081-5.043 2.749-7.954-.333-2.91-1.622-5.61-2.903-8.254-5.043-10.443-15.275-29.189-15.34-28.094-6.211 1.313-11.352 1.378-16.687 4.792-.918.495-1.694 1.218-2.254 2.1-2.132 4.054 3.697 9.973 5.676 13.054.758.984 1.265 2.14 1.475 3.364.043.866-.118 1.73-.47 2.522-1.921 4.719-8.765 7.468-12.973 9.892-5.502 3.327-11.67 5.397-18.065 6.065-4.962.421-10.03-.22-14.878.892-6.017 1.433-11.115 5.41-13.97 10.897 2.886 1.832 6.64.77 9.965-.065 6.159-1.527 12.527-2.04 18.85-1.516 4.104.349 15.414 5.1 17.36 1.281z"/>
					<path fill="#A8A8A8" d="M186.397 258.527H85.857L59.335 191.23c-.73-1.823-.507-3.89.595-5.515 1.102-1.625 2.939-2.597 4.902-2.593h78.925c7.822-.005 14.85 4.778 17.716 12.056l24.924 63.349z"/>
					<path fill="url(#prefix__g)" d="M186.397 258.527H85.857L59.335 191.23c-.73-1.823-.507-3.89.595-5.515 1.102-1.625 2.939-2.597 4.902-2.593h78.925c7.822-.005 14.85 4.778 17.716 12.056l24.924 63.349z"/>
					<path fill="url(#prefix__h)" d="M181.29 258.6H85.76l-25.2-63.9c-.682-1.729-.464-3.683.581-5.22 1.045-1.536 2.782-2.456 4.64-2.458h74.968c7.43.005 14.102 4.547 16.832 11.456L181.29 258.6z"/>
					<path fill="#A1A09F" d="M193.76 36.519c2.432-1.427 4.864-2.878 7.613-3.414 2.749-.535 6.486-.21 8.343 1.865-4.868.343-9.368 2.718-12.397 6.544-.14.245-.36.435-.624.535-.226.023-.455-.019-.657-.122-1.12-.422-9.503 1.492-9.99.478.025 0 6.682-5.262 7.711-5.886z"/>
					<path fill="url(#prefix__i)" d="M193.76 36.519c2.432-1.427 4.864-2.878 7.613-3.414 2.749-.535 6.486-.21 8.343 1.865-4.868.343-9.368 2.718-12.397 6.544-.14.245-.36.435-.624.535-.226.023-.455-.019-.657-.122-1.12-.422-9.503 1.492-9.99.478.025 0 6.682-5.262 7.711-5.886z"/>
					<ellipse cx="175.638" cy="86.222" fill="#A4A4A4" rx="9.843" ry="12.13"/>
					<ellipse cx="177.657" cy="87.584" fill="#ABABAB" rx="9.105" ry="11.222"/>
					<ellipse cx="177.657" cy="87.584" fill="url(#prefix__j)" rx="9.105" ry="11.222"/>
					<path fill="#F1AF8C" d="M174.454 64.978l2.278 41.684s1.014 15.73 16.606 15.884c18.73.186 24.43-10.703 27.276-18.99 2.845-8.286 5.416-32.626 0-39.356-5.417-6.73-35.895-23.295-46.16.778z"/>
					<path fill="#3F3D56" d="M186.3 39.949c-7.346-.13-15.738 3.3-19.086 10.232-1.628 3.23-1.711 7.023-.228 10.322.27.479.482.988.633 1.516.073.584.073 1.175 0 1.76-.13 2.86 1.175 5.596 3.478 7.297 1.29.932 2.854 1.516 3.884 2.724l-.397-7.76c-.191-.872.36-1.735 1.232-1.93l4.938-2.302s1.524 1.11 1.71 1.2c.82.35 1.705.518 2.595.495 1.936.045 3.872-.063 5.79-.325 4.143-.592 8.108-2.108 11.975-3.616-.125 1.199-.644 2.322-1.475 3.195l12.592 2.432c1.844 2.536 3.33 5.313 4.418 8.254.87 2.299 1.443 4.7 1.703 7.143.337 3.323.026 6.68-.916 9.884.856-.653 1.606-1.435 2.222-2.319 1.138.791 2.398 1.39 3.73 1.776.276.103.576.128.867.073.616-.17.746-.9.81-1.484.503-5.23 4.395-9.648 6.18-14.643 2.164-6.049 1.07-12.851-2.239-18.454-.98-1.775-2.313-3.332-3.916-4.573-5.797-4.249-14.035-2.303-20.651-4.524-3.146-1.054-5.676-3.057-8.684-4.379-3.34-1.419-7.524-1.93-11.165-1.994z"/>
					<path fill="url(#prefix__k)" d="M186.3 39.949c-7.346-.13-15.738 3.3-19.086 10.232-1.628 3.23-1.711 7.023-.228 10.322.27.479.482.988.633 1.516.073.584.073 1.175 0 1.76-.13 2.86 1.175 5.596 3.478 7.297 1.29.932 2.854 1.516 3.884 2.724l-.397-7.76c-.191-.872.36-1.735 1.232-1.93l4.938-2.302s1.524 1.11 1.71 1.2c.82.35 1.705.518 2.595.495 1.936.045 3.872-.063 5.79-.325 4.143-.592 8.108-2.108 11.975-3.616-.125 1.199-.644 2.322-1.475 3.195l12.592 2.432c1.844 2.536 3.33 5.313 4.418 8.254.87 2.299 1.443 4.7 1.703 7.143.337 3.323.026 6.68-.916 9.884.856-.653 1.606-1.435 2.222-2.319 1.138.791 2.398 1.39 3.73 1.776.276.103.576.128.867.073.616-.17.746-.9.81-1.484.503-5.23 4.395-9.648 6.18-14.643 2.164-6.049 1.07-12.851-2.239-18.454-.98-1.775-2.313-3.332-3.916-4.573-5.797-4.249-14.035-2.303-20.651-4.524-3.146-1.054-5.676-3.057-8.684-4.379-3.34-1.419-7.524-1.93-11.165-1.994z"/>
					<ellipse cx="229.857" cy="87.714" fill="#93918F" rx="9.738" ry="12.008"/>
					<ellipse cx="229.857" cy="87.714" fill="url(#prefix__l)" rx="9.738" ry="12.008"/>
					<ellipse cx="233.586" cy="87.714" fill="#A4A4A4" rx="9.738" ry="12.008"/>
					<path fill="#A4A4A4" d="M233.66 76.662l-4.865.52-1.16.12-4.865-23.943c-2.53-9.47-8.716-16.75-16.475-19.573-1.202-.419-2.48-.57-3.746-.445l-3.317.3 1.622-.43 3.243-.86c1.014-.28 2.063-.408 3.114-.38 8.66.315 16.873 7.297 19.848 17.302l6.6 27.39z"/>
					<path fill="url(#prefix__m)" d="M233.66 76.662l-4.865.52-1.16.12-4.865-23.943c-2.53-9.47-8.716-16.75-16.475-19.573-1.202-.419-2.48-.57-3.746-.445l-3.317.3 1.622-.43 3.243-.86c1.014-.28 2.063-.408 3.114-.38 8.66.315 16.873 7.297 19.848 17.302l6.6 27.39z"/>
					<path fill="#A4A4A4" d="M233.66 76.662l-4.8 1.029-4.93-24.51c-2.57-9.567-8.814-16.905-16.646-19.751-1.212-.435-2.506-.59-3.787-.454l-2.643.235 3.243-.86c1.014-.28 2.063-.408 3.114-.38 8.66.315 16.873 7.297 19.848 17.302l6.6 27.39z"/>
					<rect width="144.251" height="164.968" y="4.184" fill="#CFD9E2" opacity=".45" rx="15.64"/>
					<path fill="#FFF" d="M12.851 19.824H105.048V25.013H12.851z"/>
					<path fill="#FFF" d="M15.632 88.062H107.82900000000001V93.251H15.632z" opacity=".51"/>
					<path fill="#FFF" d="M15.632 79.184H81.17V84.37299999999999H15.632zM90.138 79.184H134.011V84.37299999999999H90.138zM66.405 46.338H133.864V50.952H66.405z"/>
					<path fill="#FFF" d="M52.273 54.519H124.44300000000001V59.132999999999996H52.273z" opacity=".51"/>
					<path fill="#FFF" d="M16.889 46.338H61.257000000000005V50.952H16.889zM36.349 62.465H133.865V67.07900000000001H36.349z"/>
					<path fill="#FFF" d="M16.889 62.465H31.208V67.07900000000001H16.889zM69.495 70.654H133.857V75.268H69.495z" opacity=".51"/>
					<path fill="#FFF" d="M16.889 70.654H61.257000000000005V75.268H16.889zM16.889 54.324H45.421V58.937999999999995H16.889z"/>
					<path fill="url(#prefix__n)" d="M169.216 62.878c1.435-2.837 4.549-4.524 7.687-5.035 3.138-.51 6.348-.04 9.486.438-3.04 2.433-11.53 6.057-11.692 6.705-.114 1.148-.128 2.304-.04 3.455.113 1.67.17 3.421.162 5.091-.783-.767-1.66-1.431-2.61-1.978-.818-.315-1.563-.792-2.19-1.403-1.675-2.055-1.99-4.902-.803-7.273z"/>
					<path fill="#8A8A8A" d="M210.51 116.822c-3.662-.074-7.295-.68-10.783-1.8-.86-.258-1.348-1.164-1.09-2.023.257-.86 1.163-1.348 2.022-1.09 8.352 2.513 14.636 2.18 18.65-.99 5.464-4.29 5.107-12.462 5.107-12.543-.045-.896.645-1.658 1.54-1.703.896-.045 1.659.645 1.703 1.54 0 .398.43 9.95-6.348 15.268-2.822 2.222-6.422 3.335-10.8 3.34z"/>
					<path fill="url(#prefix__o)" d="M210.51 116.822c-3.662-.074-7.295-.68-10.783-1.8-.86-.258-1.348-1.164-1.09-2.023.257-.86 1.163-1.348 2.022-1.09 8.352 2.513 14.636 2.18 18.65-.99 5.464-4.29 5.107-12.462 5.107-12.543-.045-.896.645-1.658 1.54-1.703.896-.045 1.659.645 1.703 1.54 0 .398.43 9.95-6.348 15.268-2.822 2.222-6.422 3.335-10.8 3.34z"/>
					<path fill="#D1D1D1" d="M200.57 109.168c.93.467 1.66 1.257 2.052 2.221.356 1.379-.714 2.7-1.817 3.6-.947.845-2.113 1.407-3.364 1.622-1.833.219-3.584-.77-5.109-1.816-.85-.52-1.576-1.22-2.124-2.052-1.41-2.48.414-5.675 2.806-6.73 2.65-1.143 5.472 1.784 7.556 3.155z"/>
					<path fill="url(#prefix__p)" d="M200.57 109.168c.93.467 1.66 1.257 2.052 2.221.356 1.379-.714 2.7-1.817 3.6-.947.845-2.113 1.407-3.364 1.622-1.833.219-3.584-.77-5.109-1.816-.85-.52-1.576-1.22-2.124-2.052-1.41-2.48.414-5.675 2.806-6.73 2.65-1.143 5.472 1.784 7.556 3.155z"/>
				</g>
				<g stroke="#D9E1E7" stroke-linecap="round" stroke-linejoin="round" stroke-width="3" transform="translate(-926 -214) translate(840 94) translate(86 120) rotate(-46 232.97 95.067)">
					<circle cx="12.833" cy="12.833" r="3.667"/>
					<path d="M21.467 16.333c-.318.72-.166 1.561.385 2.124l.07.07c.438.437.684 1.031.684 1.65 0 .62-.246 1.214-.684 1.651-.438.438-1.032.685-1.651.685-.62 0-1.213-.247-1.651-.685l-.07-.07c-.563-.55-1.403-.702-2.123-.385-.706.303-1.164.995-1.167 1.762v.198c0 1.289-1.045 2.334-2.333 2.334-1.289 0-2.334-1.045-2.334-2.334v-.105c-.018-.79-.518-1.488-1.26-1.761-.72-.318-1.56-.166-2.123.385l-.07.07c-.438.438-1.032.684-1.65.684-.62 0-1.214-.246-1.652-.684-.438-.438-.684-1.032-.684-1.651 0-.62.246-1.213.684-1.651l.07-.07c.55-.563.703-1.403.385-2.123-.302-.706-.994-1.164-1.761-1.167h-.199C1.045 15.26 0 14.215 0 12.927c0-1.289 1.045-2.334 2.333-2.334h.105c.79-.018 1.49-.518 1.762-1.26.318-.72.165-1.56-.385-2.123l-.07-.07c-.438-.438-.684-1.032-.684-1.65 0-.62.246-1.214.684-1.652.438-.438 1.032-.684 1.65-.684.62 0 1.214.246 1.652.684l.07.07c.562.55 1.403.703 2.123.385h.093c.706-.302 1.164-.994 1.167-1.761v-.199C10.5 1.045 11.545 0 12.833 0c1.289 0 2.334 1.045 2.334 2.333v.105c.003.768.461 1.46 1.166 1.762.72.318 1.561.165 2.124-.385l.07-.07c.437-.438 1.031-.684 1.65-.684.62 0 1.214.246 1.651.684.438.438.685 1.032.685 1.65 0 .62-.247 1.214-.685 1.652l-.07.07c-.55.562-.702 1.403-.385 2.123v.093c.303.706.995 1.164 1.762 1.167h.198c1.289 0 2.334 1.045 2.334 2.333 0 1.289-1.045 2.334-2.334 2.334h-.105c-.767.003-1.46.461-1.761 1.166z"/>
				</g>
				<g stroke="#D9E1E7" stroke-linecap="round" stroke-linejoin="round" stroke-width="2" transform="translate(-926 -214) translate(840 94) translate(86 120) rotate(-46 227.64 56.288)">
					<circle cx="8.771" cy="9.208" r="2.488"/>
					<path d="M14.63 11.583c-.216.489-.113 1.06.26 1.441l.048.048c.297.297.464.7.464 1.12 0 .42-.167.823-.464 1.12-.297.297-.7.464-1.12.464-.42 0-.823-.167-1.12-.464l-.048-.047c-.382-.374-.952-.477-1.44-.262-.48.205-.79.675-.792 1.196v.134c0 .875-.71 1.584-1.584 1.584-.874 0-1.583-.71-1.583-1.584v-.07c-.013-.537-.352-1.011-.855-1.196-.489-.216-1.06-.113-1.44.26l-.048.048c-.297.298-.7.465-1.12.465-.42 0-.824-.167-1.12-.465-.298-.297-.465-.7-.465-1.12 0-.42.167-.823.464-1.12l.048-.048c.373-.381.477-.952.261-1.44-.205-.479-.675-.79-1.195-.792h-.135c-.874 0-1.583-.709-1.583-1.583 0-.875.709-1.584 1.583-1.584h.071c.536-.012 1.01-.351 1.196-.855.215-.488.112-1.059-.262-1.44l-.047-.048c-.297-.297-.464-.7-.464-1.12 0-.42.167-.823.464-1.12.297-.298.7-.465 1.12-.465.42 0 .823.167 1.12.465l.048.047c.382.373.952.477 1.44.261h.064c.479-.205.79-.674.792-1.195v-.135C7.188 1.21 7.897.5 8.77.5s1.583.709 1.583 1.583v.072c.002.52.313.99.792 1.195.489.216 1.06.112 1.44-.261l.048-.048c.297-.297.7-.464 1.12-.464.42 0 .824.167 1.12.464.298.297.465.7.465 1.12 0 .42-.167.824-.464 1.12l-.048.048c-.373.382-.477.952-.261 1.441v.063c.205.479.675.79 1.195.792h.135c.874 0 1.583.709 1.583 1.583 0 .875-.709 1.584-1.583 1.584h-.071c-.52.002-.99.313-1.196.791z"/>
				</g>
				<g stroke="#D9E1E7" stroke-linecap="round" stroke-linejoin="round" stroke-width="3" transform="translate(-926 -214) translate(840 94) translate(86 120) rotate(-16 739.238 -895.105)">
					<circle cx="10.083" cy="10.083" r="10.083"/>
					<path d="M10.083 6.05L10.083 10.083M10.083 14.117L10.093 14.117"/>
				</g>
				<path stroke="#D9E1E7" stroke-linecap="round" stroke-linejoin="round" stroke-width="3" d="M274.043 102.458l-22.136-5.931c1.834.49 3.719-.597 4.21-2.431l1.483-5.534c1.146-4.279 5.545-6.818 9.823-5.672 4.28 1.147 6.819 5.545 5.672 9.824l-1.483 5.534c-.491 1.834.597 3.718 2.43 4.21h0zm-10.34 1.974c-.578.577-1.42.802-2.21.59-.789-.211-1.406-.827-1.619-1.616" transform="translate(-926 -214) translate(840 94) translate(86 120)"/>
				<g stroke="#F5FBFF" stroke-linecap="round" stroke-linejoin="round" stroke-width="3">
					<path d="M14.896 0H2.979C1.334 0 0 1.334 0 2.98v23.832c0 1.639 1.34 2.98 2.98 2.98h17.874c1.646 0 2.98-1.334 2.98-2.98V8.938L14.895 0z" transform="translate(-926 -214) translate(840 94) translate(86 120) rotate(-9 739.175 -291.172)"/>
					<path d="M14.896 1.49v7.447h7.448m-4.469 7.448H5.958m11.917 5.959H5.958m2.98-11.917h-2.98" transform="translate(-926 -214) translate(840 94) translate(86 120) rotate(-9 739.175 -291.172)"/>
				</g>
			</g>
		</g>
	</g>
</svg>
