<svg xmlns="http://www.w3.org/2000/svg" xmlns:xlink="http://www.w3.org/1999/xlink" width="64" height="64" viewBox="0 0 64 64">
    <defs>
        <circle id="prefix__a" cx="32" cy="32" r="32"/>
    </defs>
    <g fill="none" fill-rule="evenodd">
        <mask id="prefix__b" fill="#fff">
            <use xlink:href="#prefix__a"/>
        </mask>
        <use fill="#6E66B5" xlink:href="#prefix__a"/>
        <g mask="url(#prefix__b)">
            <g>
                <path fill="#4C422D" fill-rule="nonzero" d="M39.602 54.62V88.25c-2.494-.494-4.918-1.175-7.258-2.031-1.357-.494-2.685-1.047-3.983-1.656-.442-.207-.882-.422-1.318-.645-1.121-.566-2.217-1.176-3.285-1.825-5.356-3.243-10.042-7.479-13.808-12.452-2.26-2.986-4.187-6.237-5.726-9.701V54.62c0-6.173 4.192-11.367 9.884-12.888.21-.057.418-.11.631-.153.564-.125 1.145-.21 1.736-.258.36-.027.724-.044 1.091-.044h8.69c.971 0 1.918.103 2.83.302.052.01.105.022.157.034.153.034.308.072.458.113l.012.003c1.503.402 2.9 1.06 4.144 1.923 3.472 2.41 5.745 6.422 5.745 10.968z" transform="translate(10.2 6.4)"/>
                <path fill="#665B42" fill-rule="nonzero" d="M39.602 54.62V88.25c-2.494-.494-4.918-1.175-7.258-2.031-1.357-.494-2.685-1.047-3.983-1.656-.442-.207-.882-.422-1.318-.645-1.121-.566-2.217-1.176-3.285-1.825-5.356-3.243-10.042-7.479-13.808-12.452V54.62c0-6.173 4.192-11.367 9.885-12.888.21-.057.418-.11.63-.153.566-.125 1.146-.21 1.737-.258.36-.027.723-.044 1.091-.044h2.964c.97 0 1.917.103 2.83.302.051.01.104.022.156.034.153.034.308.072.458.113l.012.003c1.503.402 2.9 1.06 4.144 1.923 3.472 2.41 5.745 6.422 5.745 10.968z" transform="translate(10.2 6.4)"/>
                <path fill="#F2F0EC" fill-rule="nonzero" d="M29.746 41.578l-.031.151-3.992 18.566c-.383 1.784-1.953 3.078-3.777 3.08h-.068c-1.825-.002-3.394-1.296-3.777-3.08l-3.992-18.564-.031-.153h15.668z" transform="translate(10.2 6.4)"/>
                <path fill="#D8D5D0" fill-rule="nonzero" d="M21.912 46.74L15.904 50.078 14.078 41.578 17.81 39.38M21.912 46.74L27.919 50.078 29.746 41.578 26.013 39.38" transform="translate(10.2 6.4)"/>
                <path fill="#BEA636" fill-rule="nonzero" d="M3.976 38.061c2.435-1.744 3.652-3.023 3.652-3.838 0-1.824-3.652-3.596-3.652-4.737V17.938c0-2.045.341-4.048 1.014-5.955C7.51 4.817 14.31 0 21.913 0c.942 0 1.881.073 2.795.217 4.176.653 8.01 2.785 10.788 6.004 2.808 3.253 4.355 7.414 4.355 11.717v5.86c0 3.17-1.8 7.283-5.399 12.34" transform="translate(10.2 6.4)"/>
                <path fill="#8C781D" fill-rule="nonzero" d="M11.354 18.724c0 7.117 4.169 15.352 6.458 19.337-5.14.558-8.514-.083-10.123-1.924-2.412-2.76-3.714-8.632-3.714-13.91v-4.289c0-2.044.342-4.048 1.014-5.955C7.493 4.858 14.232.056 21.782.002c-5.515.137-10.428 8.985-10.428 18.722z" transform="translate(10.2 6.4)"/>
                <path fill="#8C781D" d="M4.37 29.463c-1.055.73-1.273 1.434-.653 2.114.93 1.02.606 2.724 0 3.65-.607.925-.98 3.055.652 3.96 1.633.905.653 3.586 0 4.253-.652.667-1.426 2.723-.138 3.658 1.289.935 1.122 2.998 0 3.368-1.12.37-1.12 3.055.642 3.055s2.38.876 3.655.876 5.348.14 6.22-1.512c.872-1.652 1.352-.522 2.388-2.968 1.036-2.446.017-5.17.017-6.96 0-1.193.682-2.322 2.047-3.386-6.399-3.22-9.834-5.784-10.305-7.694-.47-1.91-.045-3.165 1.278-3.764L6.635 27.2 4.37 29.463z" transform="translate(10.2 6.4)"/>
                <path fill="#BEA636" d="M38.83 29.463c1.055.73 1.273 1.434.653 2.114-.93 1.02-.606 2.724 0 3.65.607.925.98 3.055-.652 3.96-1.633.905-.653 3.586 0 4.253.652.667 1.426 2.723.138 3.658-1.289.935-1.122 2.998 0 3.368 1.12.37 1.12 3.055-.642 3.055s-2.38.876-3.655.876-5.348.14-6.22-1.512c-.872-1.652-1.352-.522-2.388-2.968-1.036-2.446-.017-5.17-.017-6.96 0-1.193-.682-2.322-2.047-3.386 6.399-3.22 9.834-5.784 10.305-7.694.47-1.91.045-3.165-1.278-3.764l3.538-.913 2.265 2.263z" transform="translate(10.2 6.4)"/>
                <path fill="#F8D0B7" fill-rule="nonzero" d="M26.674 36.137v5.843c0 2.139-1.41 3.947-3.353 4.547-.445.138-.919.213-1.408.213-2.63 0-4.76-2.13-4.76-4.76v-5.843h9.52z" transform="translate(10.2 6.4)"/>
                <path fill="#FFE0CD" fill-rule="nonzero" d="M26.674 41.98c0 2.139-1.41 3.947-3.353 4.547-1.752-.538-3.07-2.063-3.313-3.927.317.02.637.03.958.03.9 0 1.784-.072 2.644-.213 1.06-.17 2.084-.444 3.064-.807v.37zM8.854 26.563c0 2.204-1.61 4.031-3.718 4.37-.23.038-.467.057-.71.057C1.983 30.99 0 29.008 0 26.563c0-2.446 1.982-4.427 4.427-4.427.242 0 .48.02.709.057 2.109.339 3.718 2.165 3.718 4.37z" transform="translate(10.2 6.4)"/>
                <path fill="#F8D0B7" fill-rule="nonzero" d="M8.854 26.563c0 2.204-1.61 4.031-3.718 4.37-.382-1.392-.587-2.858-.587-4.37 0-1.513.205-2.978.587-4.37 2.109.339 3.718 2.165 3.718 4.37z" transform="translate(10.2 6.4)"/>
                <path fill="#F8D0B7" fill-rule="nonzero" d="M6.01 26.563c0 .874-.709 1.582-1.583 1.582s-1.582-.708-1.582-1.582c0-.874.708-1.583 1.582-1.583.874 0 1.583.709 1.583 1.582z" transform="translate(10.2 6.4)"/>
                <path fill="#FFE0CD" fill-rule="nonzero" d="M41.854 26.563c0 2.204-1.61 4.031-3.718 4.37-.23.038-.467.057-.71.057-2.444 0-4.426-1.982-4.426-4.427 0-2.446 1.982-4.427 4.427-4.427.242 0 .48.02.709.057 2.109.339 3.718 2.165 3.718 4.37z" transform="translate(10.2 6.4)"/>
                <path fill="#F8D0B7" fill-rule="nonzero" d="M39.01 26.563c0 .874-.709 1.582-1.583 1.582s-1.582-.708-1.582-1.582c0-.874.708-1.583 1.582-1.583.874 0 1.583.709 1.583 1.582zM10.888 16.41c-2.352 2.244 17.024 23.518 13.669 24.059l-.081.013c-.834.133-1.69.2-2.563.2-9.097 0-16.471-7.375-16.471-16.472 2.204-4.065 4.5-7.226 6.886-9.481 1.186-1.12 2.01-2.454 2.475-3.868.26 2.477 1.392 4.887 3.4 6.785 2.39 2.257 11.949 3.346 15.077 3.264l-22.392-4.5z" transform="translate(10.2 6.4)"/>
                <path fill="#BEA636" d="M18.819 15.814L16.744 19.031 24.588 23.654 36.812 21.77 34.623 16.236 21.924 15.814z" transform="translate(10.2 6.4)"/>
                <path fill="#FFE0CD" fill-rule="nonzero" d="M33.28 20.91v15.218c-2.352 2.245-5.368 3.8-8.723 4.34l-.081.014c-7.879-1.23-13.905-8.049-13.905-16.272v-6.272c0-.167-.006-1.217 0-1.382 0 0 .444-.516 1.757-1.828 1.162-1.16 2.01-2.453 2.475-3.867.26 2.477 1.392 4.887 3.4 6.785 2.39 2.257 11.949 3.346 15.077 3.264z" transform="translate(10.2 6.4)"/>
                <path fill="#45250C" fill-rule="nonzero" d="M17.674 23.984c0 1.032-.837 1.869-1.87 1.869-1.032 0-1.868-.837-1.868-1.87 0-1.032.836-1.868 1.869-1.868 1.032 0 1.869.836 1.869 1.869zM29.892 23.984c0 1.032-.836 1.869-1.868 1.869-1.033 0-1.869-.837-1.869-1.87 0-1.032.836-1.868 1.869-1.868 1.032 0 1.868.836 1.868 1.869z" transform="translate(10.2 6.4)"/>
                <path fill="#E7BA9E" fill-rule="nonzero" d="M23.783 28.688h-3.737c-.446 0-.806-.36-.806-.806 0-.444.36-.806.806-.806h3.737c.445 0 .805.362.805.806 0 .445-.36.806-.805.806zM21.914 33.788c-1.38 0-2.758-.345-4.016-1.037-.354-.195-.484-.64-.29-.995.196-.354.642-.483.996-.289 2.073 1.14 4.547 1.14 6.62 0 .354-.195.8-.065.995.29.195.354.066.8-.289.994-1.258.692-2.637 1.037-4.016 1.037z" transform="translate(10.2 6.4)"/>
                <path fill="#FFE0CD" d="M33.28 20.924c2.823.358 2.823.926 3.147 5.245.324 4.319-2.03 8.972-3.147 9.968-.744.664-1.97.384-3.677-.841L30.68 24.98c-.149-2.942.718-4.294 2.6-4.056z" transform="translate(10.2 6.4)"/>
                <path fill="#FFF" fill-rule="nonzero" d="M17.293 23.654c0 .442-.36.8-.801.8-.443 0-.8-.358-.8-.8 0-.443.357-.8.8-.8.442 0 .8.357.8.8zM29.603 23.654c0 .442-.359.8-.8.8-.443 0-.801-.358-.801-.8 0-.443.358-.8.8-.8.442 0 .8.357.8.8z" transform="translate(10.2 6.4)"/>
                <path fill="#E7BA9E" fill-rule="nonzero" d="M33.125 28.535c0 1.133-.919 2.052-2.052 2.052s-2.052-.919-2.052-2.052.919-2.052 2.052-2.052 2.052.919 2.052 2.052zM14.805 28.535c0 1.133-.918 2.052-2.051 2.052s-2.052-.919-2.052-2.052.92-2.052 2.052-2.052c1.133 0 2.051.919 2.051 2.052z" transform="translate(10.2 6.4)"/>
                <path fill="#66340D" d="M25.708 20.924c.637-1.396 1.725-1.944 3.263-1.645 1.539.3.45.848-3.263 1.645zM18.34 20.924c-.638-1.396-1.726-1.944-3.264-1.645-1.539.3-.45.848 3.264 1.645z" transform="translate(10.2 6.4)"/>
            </g>
        </g>
    </g>
</svg>
