<svg xmlns="http://www.w3.org/2000/svg" xmlns:xlink="http://www.w3.org/1999/xlink" width="64" height="64" viewBox="0 0 64 64">
    <defs>
        <circle id="prefix__a" cx="32" cy="32" r="32"/>
    </defs>
    <g fill="none" fill-rule="evenodd">
        <circle cx="32" cy="32" r="32" fill="#CBD2D9"/>
        <mask id="prefix__b" fill="#fff">
            <use xlink:href="#prefix__a"/>
        </mask>
        <use fill="#96D2C2" xlink:href="#prefix__a"/>
        <path fill="#B78B57" fill-rule="nonzero" d="M47.251 56.543v33.631c-2.494-.494-4.917-1.175-7.258-2.031-1.356-.494-2.684-1.047-3.983-1.656-.441-.207-.881-.422-1.318-.645-1.12-.566-2.216-1.176-3.285-1.825-5.355-3.243-10.041-7.479-13.807-12.452V56.543c0-6.173 4.192-11.367 9.884-12.889.21-.056.419-.108.631-.152.565-.125 1.146-.21 1.736-.258.36-.027.724-.044 1.092-.044h2.963c.97 0 1.917.103 2.83.302.052.01.105.022.156.034.154.034.308.072.459.112.004.003.008.003.012.004 1.503.402 2.9 1.06 4.143 1.923 3.472 2.41 5.745 6.422 5.745 10.968z" mask="url(#prefix__b)"/>
        <path fill="#9F7039" fill-rule="nonzero" d="M31.2 58.972l16.051 31.202c-2.494-.494-4.917-1.175-7.258-2.031-1.356-.494-2.684-1.047-3.983-1.656-.441-.207-.881-.422-1.318-.645-1.12-.566-2.216-1.176-3.285-1.825-5.355-3.243-10.041-7.479-13.807-12.452V56.543c0-6.173 4.192-11.367 9.884-12.889.21-.056.419-.108.631-.152.565-.125 1.146-.21 1.736-.258.36-.027.724-.044 1.092-.044h2.963c.97 0 1.917.103 2.83.302.052.01.105.022.156.034.154.034.308.072.459.112.004.003-6.151 10.779-6.151 15.324z" mask="url(#prefix__b)"/>
        <path fill="#DFB790" d="M28.02 44.016h9.006c.483 0 .897.345.984.82l4.013 22c.1.544-.26 1.064-.804 1.164-.06.01-.12.016-.18.016H23.62c-.551 0-1-.448-1-1 0-.066.007-.132.02-.196l4.4-22c.094-.468.504-.804.98-.804z" mask="url(#prefix__b)"/>
        <path fill="#D4AA81" d="M23.668 45.107h16.39c-5.137 2.265-8.31 4.758-9.52 7.482-1.21 2.724-.856 6.911 1.062 12.562h-4.4l-4.505-18.81c-.128-.538.203-1.077.74-1.206.076-.018.154-.028.233-.028z" mask="url(#prefix__b)" transform="matrix(1 0 0 -1 0 110.259)"/>
        <path fill="#9F7039" fill-rule="nonzero" d="M25.6 17.909c0 2.204-1.164 4.032-2.688 4.37-.166.038-.337.057-.512.057-1.768 0-3.2-1.981-3.2-4.427 0-2.445 1.504-5.893 3.271-5.893 1.524.339 3.129 3.689 3.129 5.893z" mask="url(#prefix__b)" transform="rotate(-42 22.4 17.176)"/>
        <path fill="#B78B57" fill-rule="nonzero" d="M44.8 18.41c0 2.393-1.164 4.376-2.688 4.744-.166.04-.337.062-.512.062-1.768 0-3.2-2.15-3.2-4.805 0-2.654 1.504-6.395 3.271-6.395 1.524.367 3.129 4.003 3.129 6.395z" mask="url(#prefix__b)" transform="scale(-1 1) rotate(-42 0 125.987)"/>
        <path fill="#B78B57" d="M32 45.616c8.837 0 16-2.292 16-11.129 0-8.836-7.163-20.871-16-20.871S16 25.65 16 34.487c0 8.837 7.163 11.129 16 11.129z" mask="url(#prefix__b)"/>
        <path fill="#9F7039" d="M32 45.616c8.837 0-10.152-2.292-10.152-11.129 0-6.897 12.091-20.871 10.152-20.871-8.837 0-16 12.035-16 20.871 0 8.837 7.163 11.129 16 11.129z" mask="url(#prefix__b)"/>
        <path fill="#DFB790" d="M20.793 21.617l.095.014h.005c1.58-.056 4.926 4.029 10.039 12.256.35.115.709.176 1.077.176 1.126 0 2.168-.447 3.138-1.165 4.902-8.214 7.912-11.688 9.03-10.423.88.234 2.315 3.553 3.144 6.779.531 2.068.679 4.102.679 5.246 0 8.827-7.289 11.116-15.991 11.116C23.306 45.616 16 43.326 16 34.5c0-3.62 2.978-13.316 4.888-12.87z" mask="url(#prefix__b)"/>
        <path fill="#D4AA81" d="M20.837 21.438l.083.008c.435.102.456.095 1.48.798.454.311.977.876 1.6 1.535.256.27.54.61.777.896.155.187.395.502.395.817 0 .795-.473 1.9-.265 2.666.73 2.684 1.45 6.342 3.531 8.942 2.502 3.127 7.942 6.707 8.791 8.007.27.415-3.774.5-5.374.508H31.6c-8.702 0-15.6-2.288-15.6-11.115 0-1.466.377-4.081 1.099-6.484.825-2.746 2.042-5.279 3.047-6.177.11-.208.253-.312.43-.304.117-.069.225-.117.344-.089z" mask="url(#prefix__b)"/>
        <circle cx="17.6" cy="37.616" r="6.4" fill="#D4AA81" mask="url(#prefix__b)"/>
        <circle cx="29.6" cy="38.416" r="2.4" fill="#DFB790" mask="url(#prefix__b)"/>
        <circle cx="48" cy="37.616" r="6.4" fill="#DFB790" mask="url(#prefix__b)"/>
        <circle cx="48" cy="35.2" r="1.6" fill="#F5CACA" mask="url(#prefix__b)"/>
        <path fill="#FFF" d="M33.836 38.683l1.052.997c.2.19.312.451.312.726v2.61c0 .552-.448 1-1 1h-2.37c-.552 0-1-.448-1-1 0-.117.02-.233.06-.343l1.319-3.607c.19-.52.764-.786 1.282-.596.129.046.246.12.345.213z" mask="url(#prefix__b)"/>
        <path fill="#ECECEC" d="M30.82 39.826l1.98-1.41v5.6h-1.4c-.552 0-1-.448-1-1V40.64c0-.324.156-.627.42-.815z" mask="url(#prefix__b)"/>
        <path fill="#7B5931" fill-rule="nonzero" d="M32.877 40.016h-3.354c-.399 0-.723-.18-.723-.4 0-.221.324-.4.723-.4h3.354c.399 0 .723.179.723.4 0 .22-.324.4-.723.4z" mask="url(#prefix__b)" transform="scale(1 -1) rotate(45 126.84 0)"/>
        <path fill="#7B5931" fill-rule="nonzero" d="M36.077 40.016h-3.354c-.399 0-.723-.18-.723-.4 0-.221.324-.4.723-.4h3.354c.399 0 .723.179.723.4 0 .22-.324.4-.723.4z" mask="url(#prefix__b)" transform="rotate(-135 34.4 39.616)"/>
        <path fill="#7B5931" d="M33.553 33.676l3.396 3.881c.363.416.321 1.048-.094 1.411-.183.16-.417.248-.659.248h-6.792c-.553 0-1-.448-1-1 0-.242.088-.476.247-.659l3.396-3.881c.364-.416.996-.458 1.412-.094.033.029.064.06.094.094z" mask="url(#prefix__b)" transform="matrix(1 0 0 -1 0 72.032)"/>
        <g fill-rule="nonzero" mask="url(#prefix__b)">
            <g>
                <path fill="#434343" d="M3.958 1.978c0 1.093-.887 1.98-1.98 1.98C.886 3.958 0 3.07 0 1.978 0 .886.886 0 1.978 0c1.093 0 1.98.886 1.98 1.978zM20.144 1.978c0 1.093-.885 1.98-1.978 1.98s-1.98-.887-1.98-1.98c0-1.092.887-1.978 1.98-1.978s1.978.886 1.978 1.978z" transform="translate(22.4 28.016)"/>
                <path fill="#FFF" d="M3.554 1.63c0 .468-.38.847-.848.847-.468 0-.848-.379-.848-.848 0-.468.38-.847.848-.847.469 0 .848.38.848.847zM19.838 1.63c0 .468-.38.847-.848.847-.468 0-.848-.379-.848-.848 0-.468.38-.847.848-.847.468 0 .848.38.848.847z" transform="translate(22.4 28.016)"/>
            </g>
        </g>
        <path fill="#7B5931" d="M22.968 50.52l3.257 1.385c.298.126.516.389.585.705.338 1.53.506 2.932.506 4.205 0 1.305-.363 3.543-1.09 6.711-.105.463-.52.787-.995.777l-1.01-.021c-.551-.012-.99-.469-.978-1.021v-.026l.303-6.469-1.903-4.967c-.198-.516.06-1.094.576-1.292.242-.092.51-.087.749.014z" mask="url(#prefix__b)" transform="rotate(-57 24.058 56.96)"/>
        <path fill="#7B5931" d="M38.968 50.52l3.257 1.385c.298.126.516.389.585.705.338 1.53.506 2.932.506 4.205 0 1.305-.363 3.543-1.09 6.711-.105.463-.52.787-.995.777l-1.01-.021c-.551-.012-.99-.469-.978-1.021v-.026l.303-6.469-1.903-4.967c-.198-.516.06-1.094.576-1.292.242-.092.51-.087.749.014z" mask="url(#prefix__b)" transform="scale(-1 1) rotate(-57 0 130.738)"/>
        <circle cx="17.6" cy="35.2" r="1.6" fill="#F5CACA" mask="url(#prefix__b)"/>
    </g>
</svg>
