<svg xmlns="http://www.w3.org/2000/svg" xmlns:xlink="http://www.w3.org/1999/xlink" width="64" height="64" viewBox="0 0 64 64">
    <defs>
        <circle id="prefix__a" cx="32" cy="32" r="32"/>
    </defs>
    <g fill="none" fill-rule="evenodd">
        <mask id="prefix__b" fill="#fff">
            <use xlink:href="#prefix__a"/>
        </mask>
        <use fill="#CD9659" xlink:href="#prefix__a"/>
        <g mask="url(#prefix__b)">
            <g transform="translate(8 8)">
                <path fill="#DEEDF4" fill-rule="nonzero" d="M40.388 56.663v6.008c-4.728 10.363-13.035 18.747-23.34 23.578-1.866.873-3.8 1.631-5.79 2.261-2.238.716-4.547 1.266-6.917 1.644-.01.002-.022.004-.032.004V56.663c0-7.139 5.498-12.996 12.495-13.56.368-.031.738-.044 1.112-.044h8.861c1.048 0 2.068.115 3.048.34 6.048 1.383 10.563 6.799 10.563 13.264z"/>
                <path fill="#FFF" fill-rule="nonzero" d="M40.388 56.663v6.008c-4.728 10.363-13.035 18.747-23.34 23.578-1.866.873-3.8 1.631-5.79 2.261V56.663c0-7.513 6.094-13.604 13.61-13.604h1.91c7.518 0 13.61 6.091 13.61 13.604z"/>
                <path fill="#F6CAAE" fill-rule="nonzero" d="M9.03 28.051c0 2.248-1.642 4.112-3.792 4.457-.235.038-.476.058-.723.058C2.02 32.566 0 30.546 0 28.051c0-2.494 2.02-4.515 4.515-4.515.247 0 .488.02.723.058 2.15.347 3.792 2.21 3.792 4.457z"/>
                <path fill="#4FC3F7" fill-rule="nonzero" d="M26.001 47.967L22.348 53.826 18.695 47.967"/>
                <path fill="#4FC3F7" fill-rule="nonzero" d="M27.263 70.377L22.348 76.579 17.433 70.377 22.349 52.302z"/>
                <path fill="#EAB599" fill-rule="nonzero" d="M9.03 28.051c0 2.248-1.642 4.112-3.792 4.457-.39-1.42-.599-2.914-.599-4.457 0-1.542.209-3.036.6-4.457 2.15.347 3.79 2.21 3.79 4.457z"/>
                <path fill="#EAB599" fill-rule="nonzero" d="M6.129 28.051c0 .891-.723 1.614-1.614 1.614-.891 0-1.613-.723-1.613-1.614 0-.89.722-1.613 1.613-1.613s1.614.722 1.614 1.613z"/>
                <path fill="#E0F6FF" fill-rule="nonzero" d="M22.347 48.628L16.221 52.033 14.357 43.364 18.163 41.122M22.347 48.628L28.473 52.033 30.337 43.364 26.53 41.122"/>
                <path fill="#F6CAAE" fill-rule="nonzero" d="M35.665 28.051c0 2.248 1.641 4.112 3.791 4.457.235.038.477.058.724.058 2.494 0 4.515-2.02 4.515-4.515 0-2.494-2.021-4.515-4.515-4.515-.247 0-.489.02-.724.058-2.15.347-3.791 2.21-3.791 4.457z"/>
                <g fill="#EAB599" fill-rule="nonzero">
                    <path d="M30.147 19.394c0 2.248 1.641 4.112 3.791 4.457.391-1.42.6-2.914.6-4.457 0-1.542-.209-3.036-.6-4.457-2.15.347-3.791 2.21-3.791 4.457z" transform="translate(5.518 8.657)"/>
                    <path d="M36.276 19.394c0 .891-.723 1.614-1.614 1.614-.891 0-1.614-.723-1.614-1.614 0-.89.723-1.613 1.614-1.613.89 0 1.614.722 1.614 1.613z" transform="translate(5.518 8.657)"/>
                    <path d="M33.628 16.995c0 8.359-6.107 15.294-14.103 16.58-.876.145-1.777.218-2.696.218-9.278 0-16.798-7.52-16.798-16.798 0-4.39 1.525-10.98 4.282-13.972C7.383-.31 11.94.196 16.829.196c.92 0 1.82.073 2.696.218 7.996 1.287 14.103 8.221 14.103 16.58z" transform="translate(5.518 8.657)"/>
                    <path d="M21.685 29.16v5.957c0 2.181-1.438 4.025-3.42 4.637-.453.14-.936.217-1.436.217-2.681 0-4.854-2.173-4.854-4.854V29.16h9.71z" transform="translate(5.518 8.657)"/>
                </g>
                <path fill="#F6CAAE" fill-rule="nonzero" d="M27.203 43.396v.378c0 2.181-1.438 4.025-3.42 4.637-1.787-.549-3.13-2.103-3.379-4.005.324.02.65.03.978.03.918 0 1.819-.073 2.696-.217 1.081-.174 2.125-.451 3.125-.823zM39.146 25.652c0 8.359-6.107 15.294-14.103 16.58-7.995-1.286-14.101-8.221-14.101-16.58 0-5.148 2.315-9.755 5.962-12.837 2.274-1.923 5.068-3.25 8.14-3.745 7.453 1.2 13.268 7.31 14.02 14.906.054.552.082 1.111.082 1.676z"/>
                <path fill="#EAB599" fill-rule="nonzero" d="M22.348 33.925c-1.407 0-2.813-.352-4.095-1.057-.363-.199-.495-.653-.295-1.015.198-.362.653-.494 1.014-.294 2.114 1.16 4.638 1.16 6.752 0 .36-.2.815-.068 1.014.294.199.362.067.816-.295 1.015-1.282.705-2.69 1.057-4.095 1.057z"/>
                <path fill="#3D4159" fill-rule="nonzero" d="M18.77 24.674c0 1.052-.853 1.905-1.906 1.905-1.052 0-1.905-.853-1.905-1.905 0-1.053.853-1.906 1.905-1.906 1.053 0 1.906.853 1.906 1.906zM29.736 24.674c0 1.052-.853 1.905-1.905 1.905-1.053 0-1.906-.853-1.906-1.905 0-1.053.853-1.906 1.906-1.906 1.052 0 1.905.853 1.905 1.906z"/>
                <path fill="#FFF" fill-rule="nonzero" d="M18.382 24.337c0 .451-.366.818-.817.818-.45 0-.816-.367-.816-.818 0-.45.365-.816.816-.816.451 0 .817.366.817.816zM29.441 24.337c0 .451-.365.818-.816.818-.451 0-.817-.367-.817-.818 0-.45.366-.816.817-.816.45 0 .816.366.816.816z"/>
                <path fill="#EAB599" fill-rule="nonzero" d="M24.253 29.472h-3.81c-.455 0-.823-.369-.823-.823 0-.453.368-.821.822-.821h3.811c.454 0 .823.368.823.821-.001.454-.369.823-.823.823z"/>
                <path fill="#2A2F4F" fill-rule="nonzero" d="M21.365 4.055c5.089.363 9.174 4.474 9.433 9.648l.048.972h2.928L35.35 25.16l3.819-1.182-.513-10.273c-.271-5.436-4.767-9.696-10.207-9.675l-7.084.026z"/>
                <path fill="#3D4159" fill-rule="nonzero" d="M38.332 0c4.052 4.052 4.052 10.622 0 14.674s-10.622 4.052-14.674 0L38.332 0z"/>
                <path fill="#3D4159" fill-rule="nonzero" d="M23.658 14.674H10.923L9.346 25.16l-3.818-1.182.511-10.274c.271-5.434 4.767-9.696 10.208-9.675l18.393.07 2.431 4.376"/>
                <path fill="#2A2F4F" fill-rule="nonzero" d="M23.33 4.055c-5.088.363-9.174 4.474-9.433 9.648l-.048.972h-2.927L9.345 25.16l-3.818-1.182.512-10.273c.271-5.436 4.767-9.696 10.207-9.675l7.085.026z"/>
                <path fill="#3D4159" d="M25.708 20.924c.637-1.396 1.725-1.944 3.263-1.645 1.539.3.45.848-3.263 1.645zM18.34 20.924c-.638-1.396-1.726-1.944-3.264-1.645-1.539.3-.45.848 3.264 1.645z"/>
                <circle cx="22.4" cy="11.2" r="6.4" fill="#3D4159"/>
            </g>
        </g>
    </g>
</svg>
