<svg xmlns="http://www.w3.org/2000/svg" xmlns:xlink="http://www.w3.org/1999/xlink" width="64" height="64" viewBox="0 0 64 64">
    <defs>
        <circle id="prefix__a" cx="32" cy="32" r="32"/>
    </defs>
    <g fill="none" fill-rule="evenodd">
        <mask id="prefix__b" fill="#fff">
            <use xlink:href="#prefix__a"/>
        </mask>
        <use fill="#F1FCFF" xlink:href="#prefix__a"/>
        <g mask="url(#prefix__b)">
            <g>
                <path fill="#3D4159" fill-rule="nonzero" d="M40.189 56.461V91.18C24.06 87.668 10.776 76.544 4.288 61.759v-5.298c0-6.265 4.253-11.537 10.032-13.08.211-.059.423-.11.64-.157.574-.125 1.163-.21 1.76-.259.366-.029.736-.045 1.11-.045h8.817c.987 0 1.946.104 2.873.304.054.01.106.023.158.036.157.035.311.072.466.115l.012.003c1.525.408 2.943 1.075 4.204 1.951 3.523 2.445 5.829 6.52 5.829 11.132z" transform="translate(9 7)"/>
                <path fill="#B1D0D7" fill-rule="nonzero" d="M30.189 43.224l-.033.154-4.32 20.086c-.223.02-.447.037-.672.052-.316.02-.634.04-.954.054-.653.03-1.31.046-1.97.046-.677 0-1.35-.016-2.019-.048-.303-.014-.605-.03-.908-.053-.226-.016-.45-.032-.675-.051L14.32 43.38l-.032-.156h15.9z" transform="translate(9 7)"/>
                <path fill="#8AADC3" fill-rule="nonzero" d="M25.874 47.806L22.239 53.636 18.604 47.806" transform="translate(9 7)"/>
                <path fill="#8AADC3" fill-rule="nonzero" d="M25.164 63.516c-.316.02-2.264 10.323-2.925 10.323-.677 0-2.623-10.302-2.926-10.324l2.926-11.396 2.925 11.397z" transform="translate(9 7)"/>
                <path fill="#C9E8EF" fill-rule="nonzero" d="M22.237 48.463L16.141 51.851 14.287 43.225 18.075 40.994M22.237 48.463L28.334 51.851 30.188 43.225 26.4 40.994" transform="translate(9 7)"/>
                <path fill="#737688" fill-rule="nonzero" d="M30.419 54.865L32.352 54.865 24.056 76.338 22.423 80.566 20.612 76.066 22.278 70.344 30.144 43.375 30.19 43.224 34.36 44.587z" transform="translate(9 7)"/>
                <path fill="#737688" fill-rule="nonzero" d="M24.056 76.338L22.423 80.566 20.612 76.066 12.077 54.865 14.013 54.865 10.071 44.587 14.242 43.224 14.287 43.375 22.278 70.344z" transform="translate(9 7)"/>
                <path fill="#EAB599" fill-rule="nonzero" d="M27.07 37.704v5.929c0 2.17-1.432 4.005-3.403 4.614-.451.14-.932.216-1.43.216-2.667 0-4.83-2.162-4.83-4.83v-5.929h9.662z" transform="translate(9 7)"/>
                <path fill="#F6CAAE" fill-rule="nonzero" d="M27.07 43.258v.375c0 2.17-1.432 4.005-3.403 4.614-1.779-.546-3.116-2.093-3.363-3.985.323.02.647.03.973.03.914 0 1.81-.073 2.683-.216 1.075-.173 2.115-.45 3.11-.818zM8.985 27.987c0 2.237-1.633 4.092-3.772 4.436-.234.038-.475.057-.72.057C2.011 32.48 0 30.47 0 27.987c0-2.481 2.01-4.493 4.493-4.493.245 0 .486.02.72.058 2.14.345 3.772 2.199 3.772 4.435z" transform="translate(9 7)"/>
                <path fill="#EAB599" fill-rule="nonzero" d="M8.985 27.987c0 2.237-1.633 4.092-3.772 4.436-.39-1.414-.597-2.9-.597-4.436 0-1.535.208-3.022.597-4.435 2.14.345 3.772 2.199 3.772 4.435z" transform="translate(9 7)"/>
                <path fill="#EAB599" fill-rule="nonzero" d="M6.099 27.987c0 .887-.72 1.606-1.606 1.606-.887 0-1.606-.719-1.606-1.606 0-.886.72-1.606 1.606-1.606.887 0 1.606.72 1.606 1.606z" transform="translate(9 7)"/>
                <path fill="#F6CAAE" fill-rule="nonzero" d="M35.49 27.987c0 2.237 1.634 4.092 3.774 4.436.234.038.474.057.72.057 2.481 0 4.492-2.011 4.492-4.493 0-2.481-2.01-4.493-4.492-4.493-.246 0-.486.02-.72.058-2.14.345-3.773 2.199-3.773 4.435z" transform="translate(9 7)"/>
                <path fill="#EAB599" fill-rule="nonzero" d="M35.49 27.987c0 2.237 1.634 4.092 3.774 4.436.388-1.414.596-2.9.596-4.436 0-1.535-.208-3.022-.596-4.435-2.14.345-3.773 2.199-3.773 4.435z" transform="translate(9 7)"/>
                <path fill="#EAB599" fill-rule="nonzero" d="M38.954 19.235V25.6c0 8.318-6.077 15.219-14.033 16.5-.027.003-.056.008-.082.013-.846.135-1.715.202-2.601.202-9.232 0-16.716-7.484-16.716-16.715v-6.365c0-1.945.332-3.813.945-5.548 2.286-6.506 8.484-11.17 15.77-11.17h.002c.885 0 1.755.07 2.603.202 7.995 1.25 14.112 8.17 14.112 16.516z" transform="translate(9 7)"/>
                <path fill="#EAB599" fill-rule="nonzero" d="M41.589 27.987c0 .887-.719 1.606-1.605 1.606-.888 0-1.606-.719-1.606-1.606 0-.886.718-1.606 1.606-1.606.886 0 1.605.72 1.605 1.606z" transform="translate(9 7)"/>
                <path fill="#F6CAAE" fill-rule="nonzero" d="M38.954 19.235V25.6c0 8.318-6.077 15.219-14.033 16.5-.027.003-.056.008-.082.013-7.996-1.25-14.11-8.168-14.11-16.513v-6.365c0-8.347 6.116-15.266 14.113-16.516 7.995 1.25 14.112 8.17 14.112 16.516z" transform="translate(9 7)"/>
                <g fill-rule="nonzero">
                    <path fill="#434343" d="M3.793 1.896c0 1.047-.85 1.897-1.897 1.897C.849 3.793 0 2.943 0 1.896 0 .849.85 0 1.896 0c1.047 0 1.897.85 1.897 1.896zM14.705 1.896c0 1.047-.849 1.897-1.896 1.897s-1.897-.85-1.897-1.897C10.912.849 11.762 0 12.81 0c1.047 0 1.896.85 1.896 1.896z" transform="translate(9 7) translate(14.886 22.73)"/>
                    <path fill="#FFF" d="M3.406 1.561c0 .45-.364.813-.813.813-.448 0-.813-.363-.813-.813 0-.448.365-.812.813-.812.45 0 .813.364.813.812zM14.412 1.561c0 .45-.365.813-.813.813-.448 0-.813-.363-.813-.813 0-.448.365-.812.813-.812.448 0 .813.364.813.812z" transform="translate(9 7) translate(14.886 22.73)"/>
                    <path fill="#EAB599" d="M9.249 5.927H5.456c-.451 0-.818-.366-.818-.818 0-.451.367-.818.818-.818H9.25c.451 0 .818.367.818.818 0 .452-.367.818-.818.818zM7.352 11.103c-1.4 0-2.799-.351-4.075-1.053-.36-.198-.491-.65-.293-1.01s.65-.49 1.01-.293c2.103 1.156 4.614 1.156 6.718 0 .36-.198.812-.067 1.009.294.198.36.067.811-.293 1.01-1.276.7-2.676 1.052-4.076 1.052z" transform="translate(9 7) translate(14.886 22.73)"/>
                </g>
                <path fill="#0E0E0E" fill-rule="nonzero" d="M38.954 13.458v6.52h-3.11v-5.106l-22.459-1.107-4.752-.307v6.52h-3.11v-6.52C5.522 6.025 11.546 0 18.978 0h6.518c.177 0 .354.002.531.012 7.185.276 12.926 6.19 12.926 13.446z" transform="translate(9 7)"/>
                <path fill="#3D3D3D" fill-rule="nonzero" d="M38.954 13.458v6.52h-3.11v-5.106l-22.459-1.107C14.623 7.822 19.78.252 26.028.012c7.185.276 12.926 6.19 12.926 13.446z" transform="translate(9 7)"/>
                <path fill="#606060" d="M26.17 21.123c.61-1.338 1.653-1.863 3.127-1.576 1.475.287.432.813-3.127 1.576zM19.109 21.123c-.611-1.338-1.654-1.863-3.128-1.576-1.474.287-.432.813 3.128 1.576z" transform="translate(9 7)"/>
            </g>
        </g>
    </g>
</svg>
