<svg xmlns="http://www.w3.org/2000/svg" xmlns:xlink="http://www.w3.org/1999/xlink" width="64" height="64" viewBox="0 0 64 64">
    <defs>
        <circle id="prefix__a" cx="32" cy="32" r="32"/>
    </defs>
    <g fill="none" fill-rule="evenodd">
        <circle cx="32" cy="32" r="32" fill="#CBD2D9"/>
        <mask id="prefix__b" fill="#fff">
            <use xlink:href="#prefix__a"/>
        </mask>
        <use fill="#82ACD7" xlink:href="#prefix__a"/>
        <path fill="#FFF" d="M44.185 5.58L48 27.2h-9.6l3.815-21.62c.096-.543.615-.907 1.159-.81.414.072.738.397.81.81z" mask="url(#prefix__b)"/>
        <path fill="#EADCD3" d="M41.6 9.14L43.738 27.2 38.4 27.2z" mask="url(#prefix__b)"/>
        <path fill="#F8B5B5" d="M44.19 10.383L46.4 25.6H40l2.21-15.217c.08-.547.587-.925 1.134-.846.438.064.782.408.846.846z" mask="url(#prefix__b)"/>
        <path fill="#EADCD3" d="M21.785 5.58L25.6 27.2H16l3.815-21.62c.096-.543.615-.907 1.159-.81.414.072.738.397.81.81z" mask="url(#prefix__b)"/>
        <path fill="#FFF" d="M25.6 7.58V27.2h-4.8c.7-4.036 1.794-10.225 3.285-18.568.226-.554.477-.876.753-.964.277-.089.53-.118.762-.087z" mask="url(#prefix__b)" transform="matrix(-1 0 0 1 46.4 0)"/>
        <path fill="#E9A1A1" d="M21.79 10.383L24 25.6h-6.4l2.21-15.217c.08-.547.587-.925 1.134-.846.438.064.782.408.846.846z" mask="url(#prefix__b)"/>
        <path fill="#EADCD3" d="M27.2 72c2.651 0 4.8-2.507 4.8-5.6 0-3.093-2.149-8.8-4.8-8.8s-4.8 5.707-4.8 8.8c0 3.093 2.149 5.6 4.8 5.6z" mask="url(#prefix__b)" transform="rotate(-47 27.2 64.8)"/>
        <path fill="#EADCD3" d="M28 65.6c2.21 0 4-2.507 4-5.6 0-3.093-1.79-8.8-4-8.8s-4 5.707-4 8.8c0 3.093 1.79 5.6 4 5.6z" mask="url(#prefix__b)" transform="rotate(-64 28 58.4)"/>
        <circle cx="32" cy="51.2" r="6.4" fill="#FFF" mask="url(#prefix__b)"/>
        <rect width="19.2" height="25.6" x="24" y="46.4" fill="#EADCD3" mask="url(#prefix__b)" rx="1"/>
        <path fill="#FFF" d="M45.6 43.2c3.093 0 6.34-4.899 6.34-7.992S48.692 32 45.6 32 40 34.507 40 37.6c0 3.093 2.507 5.6 5.6 5.6z" mask="url(#prefix__b)" transform="rotate(37 45.97 37.6)"/>
        <path fill="#FFF" d="M45.6 36.8c3.093 0 6.34-4.899 6.34-7.992S48.692 25.6 45.6 25.6 40 28.107 40 31.2c0 3.093 2.507 5.6 5.6 5.6z" mask="url(#prefix__b)" transform="rotate(-5 45.97 31.2)"/>
        <path fill="#EADCD3" d="M33.6 20.528c9.625 0 13.333 9.392 15.589 17.312 2.256 7.92-5.819 14.96-15.444 14.96-5.203 0-10.662-2.057-14.128-5.198-1.133.185-2.228.18-3.103-.055-2.787-.747-2.34-3.553-1.616-6.352-.974-.545-1.804-1.208-2.335-1.913-1.823-2.418.558-4.43 2.976-6.26-.81-1.548-1.27-3.272-1.153-4.606.27-3.081 3.514-2.913 6.595-2.644.556.049 1.086.177 1.58.373 2.711-3.302 6.26-5.617 11.039-5.617z" mask="url(#prefix__b)"/>
        <path fill="#FFF" d="M35.127 20.8c8.711 0 12.066 8.79 14.108 16.203.278 1.01.4 2.135.356 3.282.033.101.064.204.092.309.8 2.987 1.53 6.153-1.458 6.953-.522.14-1.124.199-1.765.184-.904.97-1.933 1.797-2.956 2.46-2.476 1.605-4.914.814-8.245.814-8.71 0-18.216-6.589-15.626-14.002 2.59-7.412 6.784-16.203 15.494-16.203z" mask="url(#prefix__b)"/>
        <path fill="#FFF" d="M38.764 32.304c3.316 0 8.832-1.568 8.832-4.884 0-3.315-4.727-6.62-8.043-6.62-3.316 0-9.153 4.096-9.153 7.412s5.049 4.092 8.364 4.092z" mask="url(#prefix__b)" transform="rotate(39 38.998 26.552)"/>
        <path fill="#F6CAAE" d="M32.648 48c3.394 0 7.672-1.044 7.672-5.463C40.32 38.12 36.042 32 32.648 32s-6.728 6.119-6.728 10.537c0 4.419 3.334 5.463 6.728 5.463z" mask="url(#prefix__b)"/>
        <path fill="#FFF" d="M28.912 52.8L43.2 48.615V71c0 .552-.448 1-1 1H29.806c-.552 0-1-.448-1-1v-.006l.106-18.194z" mask="url(#prefix__b)"/>
        <path fill="#FFF" d="M33.918 27.2c2.209 0 4-2.596 4-5.799 0-3.202-4.003-7.001-6.212-7.001-2.209 0 .599 2.556.599 5.759 0 1.844-1.92 3.598-1.905 5.152.011 1.145 2.58 1.889 3.518 1.889z" mask="url(#prefix__b)" transform="rotate(43 34.159 20.8)"/>
        <path fill="#FFF" fill-rule="nonzero" d="M20.339 27.546c2.21 0 7.6 2.774 16.171 8.32-1.212-3.184-2.259-5.2-3.142-6.049-.055-.052-7.472-6.157-9.057-6.157-3.07 0-10.152 2.037-10.912 5.188-.061.253-.269.7-.269.947 0 3.316 3.893-2.249 7.209-2.249z" mask="url(#prefix__b)" transform="scale(-1 1) rotate(39 0 -40.326)"/>
        <path fill="#FFF" d="M33.918 27.2c2.209 0 4-2.596 4-5.799 0-3.202-4.003-7.001-6.212-7.001-2.209 0 .599 2.556.599 5.759 0 1.844-1.92 3.598-1.905 5.152.011 1.145 2.58 1.889 3.518 1.889z" mask="url(#prefix__b)" transform="rotate(43 34.159 20.8)"/>
        <path fill="#EADCD3" d="M34.46 28.045c1.63 0 2.952-2.596 2.952-5.798 0-3.203-2.777-6.673-4.408-6.673-1.63 0 1.62 1.592 1.62 4.795 0 1.844-1.305 5.48-1.294 7.034.009 1.145.438.642 1.13.642z" mask="url(#prefix__b)" transform="rotate(43 34.98 21.865)"/>
        <path fill="#FFF" d="M40 72c2.651 0 4.8-2.507 4.8-5.6 0-3.093-2.149-8.8-4.8-8.8s-4.8 5.707-4.8 8.8c0 3.093 2.149 5.6 4.8 5.6z" mask="url(#prefix__b)" transform="scale(-1 1) rotate(-47 0 156.794)"/>
        <path fill="#FFF" d="M20.237 42.465c2.651 0 5.434-4.2 5.434-6.85 0-2.651-2.783-2.75-5.434-2.75-2.65 0-4.8 2.149-4.8 4.8s2.15 4.8 4.8 4.8z" mask="url(#prefix__b)" transform="scale(-1 1) rotate(37 0 -23.765)"/>
        <path fill="#FFF" d="M39.2 65.6c2.21 0 4-2.507 4-5.6 0-3.093-1.79-8.8-4-8.8s-4 5.707-4 8.8c0 3.093 1.79 5.6 4 5.6z" mask="url(#prefix__b)" transform="scale(-1 1) rotate(-64 0 121.133)"/>
        <ellipse cx="32.8" cy="52.8" fill="#FFF" mask="url(#prefix__b)" rx="4" ry="3.2"/>
        <ellipse cx="32.8" cy="52.8" fill="#FFF" mask="url(#prefix__b)" rx="4" ry="3.2"/>
        <path fill="#FFF" d="M28.696 62.07c2.21 0 4.904-3.811 4.904-5.578 0-1.768-2.454-3.692-4.663-3.692S25.6 55.668 25.6 57.435c0 1.768.887 4.636 3.096 4.636z" mask="url(#prefix__b)"/>
        <path fill="#FFF" d="M18.115 33.212c2.072 0 5.106-3.427 5.106-5.636s-2.897-3.606-4.97-3.606c-2.071 0-3.751 1.79-3.751 4 0 2.209 1.543 5.242 3.615 5.242z" mask="url(#prefix__b)" transform="scale(-1 1) rotate(-5 0 460.563)"/>
        <path fill="#FFF" d="M24.956 29.94c2.395 0 4.066-3.673 4.066-6.226 0-2.554-2.214-3.374-4.609-3.374s-3.795 2.424-3.795 4.977c0 2.553 1.942 4.623 4.338 4.623z" mask="url(#prefix__b)" transform="scale(-1 1) rotate(-5 0 593.613)"/>
        <path fill="#FFF" d="M31.2 72c2.21 0 4-2.507 4-5.6 0-3.093-1.79-8.8-4-8.8s-4 5.707-4 8.8c0 3.093 1.79 5.6 4 5.6z" mask="url(#prefix__b)" transform="rotate(-64 31.2 64.8)"/>
        <g fill-rule="nonzero" mask="url(#prefix__b)">
            <g>
                <path fill="#434343" d="M3.958 1.978c0 1.093-.887 1.98-1.98 1.98C.886 3.958 0 3.07 0 1.978 0 .886.886 0 1.978 0c1.093 0 1.98.886 1.98 1.978zM18.544 1.978c0 1.093-.885 1.98-1.978 1.98s-1.98-.887-1.98-1.98c0-1.092.887-1.978 1.98-1.978s1.978.886 1.978 1.978z" transform="translate(22.4 30.4)"/>
                <path fill="#FFF" d="M3.554 1.63c0 .468-.38.847-.848.847-.468 0-.848-.379-.848-.848 0-.468.38-.847.848-.847.469 0 .848.38.848.847zM18.238 1.63c0 .468-.38.847-.848.847-.468 0-.848-.379-.848-.848 0-.468.38-.847.848-.847.468 0 .848.38.848.847z" transform="translate(22.4 30.4)"/>
                <path fill="#EAB599" d="M9.42 8.951l-2.371-2.37c-.283-.283-.258-.766.054-1.078.312-.312.795-.337 1.077-.054l2.371 2.37c.283.283.258.766-.054 1.078-.312.312-.795.337-1.077.054z" transform="translate(22.4 30.4)"/>
                <path fill="#EAB599" d="M11.38 8.951l2.371-2.37c.283-.283.258-.766-.054-1.078-.312-.312-.795-.337-1.077-.054l-2.371 2.37c-.283.283-.258.766.054 1.078.312.312.795.337 1.077.054z" transform="translate(22.4 30.4)"/>
                <path fill="#EAB599" d="M11.2 10.718V8.482c0-.266-.358-.482-.8-.482-.442 0-.8.216-.8.482v2.236c0 .266.358.482.8.482.442 0 .8-.216.8-.482z" transform="translate(22.4 30.4)"/>
            </g>
        </g>
    </g>
</svg>
